<?xml version="1.0" standalone="no"?>
<!DOCTYPE svg PUBLIC "-//W3C//DTD SVG 20010904//EN"
 "http://www.w3.org/TR/2001/REC-SVG-20010904/DTD/svg10.dtd">
<svg version="1.0" xmlns="http://www.w3.org/2000/svg"
 width="2943.000000pt" height="367.000000pt" viewBox="0 0 2943.000000 367.000000"
 preserveAspectRatio="xMidYMid meet">

<g transform="translate(0.000000,367.000000) scale(0.100000,-0.100000)"
fill="#000000" stroke="none">
<path d="M11914 3640 c-117 -30 -190 -73 -279 -164 -92 -93 -127 -152 -155
-262 -49 -192 0 -397 129 -536 168 -182 515 -222 716 -83 52 36 109 110 121
157 l6 28 -38 -16 c-60 -25 -187 -29 -264 -9 -131 34 -253 125 -302 224 -34
69 -33 195 3 272 37 78 90 133 163 169 154 75 375 66 866 -35 228 -47 423 -75
518 -75 l94 0 -62 -42 c-363 -242 -832 -1112 -965 -1788 -82 -422 -40 -739
125 -922 111 -124 332 -186 522 -147 166 35 364 175 530 379 l36 44 12 -44
c35 -130 135 -264 238 -318 106 -55 156 -67 287 -67 106 1 128 4 189 28 116
46 185 95 306 216 292 294 447 571 937 1676 301 679 420 914 554 1095 60 82
141 161 199 195 l45 27 -105 -6 c-127 -7 -199 -25 -305 -76 -191 -93 -380
-290 -546 -569 -121 -202 -287 -609 -499 -1221 -197 -571 -292 -790 -410 -949
-86 -117 -161 -170 -258 -185 -214 -33 -274 231 -171 749 61 307 168 657 264
866 101 217 252 515 307 602 107 174 211 288 306 336 23 12 42 24 42 28 0 12
-207 -7 -285 -27 -225 -56 -427 -218 -607 -485 -133 -198 -270 -521 -499
-1175 -132 -377 -204 -545 -293 -678 -85 -126 -170 -192 -272 -211 -137 -26
-212 48 -235 234 -43 354 185 1192 506 1852 183 376 327 586 464 674 l45 29
-83 0 c-45 0 -128 -10 -184 -21 -189 -39 -386 -15 -694 86 -103 34 -476 130
-582 149 -119 23 -345 21 -437 -4z"/>
<path d="M2844 3490 c-50 -5 -137 -18 -194 -30 -331 -67 -573 -200 -730 -400
-126 -159 -179 -295 -188 -475 -10 -232 78 -399 252 -481 63 -29 176 -59 176
-47 0 3 -9 51 -21 106 -50 239 6 486 154 683 276 366 782 531 1267 412 198
-48 308 -135 394 -308 90 -183 130 -408 129 -725 -1 -805 -339 -1768 -685
-1956 -59 -32 -69 -34 -158 -34 -85 0 -100 3 -141 27 -122 72 -187 219 -176
398 9 134 55 247 135 330 l48 49 -27 6 c-38 9 -193 -13 -250 -35 -106 -40
-215 -133 -260 -222 -116 -227 -12 -526 233 -671 137 -82 330 -118 522 -98
385 39 677 216 922 557 370 518 488 1289 289 1902 -47 144 -150 348 -229 453
-114 150 -294 301 -460 386 -134 68 -341 131 -522 158 -123 18 -365 26 -480
15z"/>
<path d="M3455 3169 c-153 -22 -319 -88 -440 -174 -79 -56 -248 -231 -314
-325 -140 -199 -255 -478 -470 -1140 -230 -705 -323 -901 -522 -1101 -147
-148 -299 -206 -512 -196 -134 6 -202 27 -300 94 -221 150 -323 455 -295 879
26 413 213 696 491 744 74 13 176 2 228 -26 113 -58 192 -232 193 -424 0 -163
-47 -291 -131 -355 l-43 -33 27 -7 c174 -45 340 -8 439 97 183 196 159 525
-55 739 -175 175 -399 249 -716 236 -289 -11 -492 -97 -691 -292 -226 -221
-346 -546 -331 -893 8 -192 49 -317 157 -477 179 -266 395 -413 715 -488 74
-17 122 -21 270 -21 262 0 451 38 642 129 134 63 233 135 364 265 229 227 327
397 499 870 65 179 110 318 258 806 128 419 198 589 312 764 105 159 217 258
358 316 l57 24 -65 -1 c-36 -1 -92 -5 -125 -10z"/>
<path d="M28755 2753 c-276 -43 -470 -214 -536 -471 -41 -162 -13 -302 89
-432 19 -25 117 -126 218 -226 160 -157 188 -189 215 -248 29 -63 31 -73 26
-146 -8 -122 -54 -204 -145 -257 -36 -22 -61 -27 -126 -31 -100 -4 -137 13
-181 83 -27 44 -30 56 -30 134 0 74 4 94 28 143 25 52 76 107 123 134 18 10
17 13 -17 47 -63 63 -158 72 -263 24 -65 -30 -112 -78 -145 -147 -22 -47 -26
-68 -26 -150 0 -83 3 -102 28 -151 30 -63 112 -146 175 -178 140 -72 446 -71
641 1 326 120 480 430 352 704 -51 108 -109 182 -295 373 -213 219 -246 270
-254 387 -6 89 8 131 60 184 70 73 183 106 248 73 105 -53 130 -249 52 -406
l-31 -62 21 -22 20 -22 58 72 c69 86 211 225 298 291 42 32 61 53 58 63 -3 8
-6 19 -6 25 0 6 -12 8 -31 4 -42 -8 -79 11 -164 85 -38 34 -99 75 -135 92 -59
29 -74 31 -180 33 -63 1 -128 0 -145 -3z"/>
<path d="M4710 2738 c0 -22 14 -35 44 -42 48 -12 90 -65 113 -143 12 -39 56
-239 99 -444 l78 -374 -23 -135 c-55 -326 -93 -520 -113 -580 -23 -71 -72
-130 -107 -130 -17 0 -41 -26 -41 -44 0 -3 162 -6 360 -6 353 0 360 0 360 20
0 13 -11 25 -34 34 -73 31 -73 95 7 541 l53 300 218 385 c281 496 311 539 411
573 21 8 45 23 53 35 l14 22 -220 0 c-215 0 -221 -1 -227 -21 -4 -11 -5 -21
-3 -22 54 -28 58 -47 28 -131 -33 -90 -324 -605 -328 -581 -2 11 -26 126 -53
255 -73 347 -75 418 -9 443 21 8 30 18 30 34 l0 23 -355 0 c-277 0 -355 -3
-355 -12z"/>
<path d="M6317 2743 c-16 -15 -5 -34 27 -47 46 -19 56 -42 56 -123 0 -68 -236
-1428 -264 -1523 -29 -98 -76 -160 -120 -160 -13 0 -36 -28 -36 -44 0 -3 288
-6 639 -6 l639 0 6 28 c14 64 86 499 86 515 0 13 -9 17 -40 17 -27 0 -40 -4
-40 -14 0 -36 -77 -163 -134 -221 -106 -108 -183 -135 -389 -135 l-139 0 7 53
c14 110 237 1366 255 1440 11 44 29 94 41 113 21 34 64 64 94 64 8 0 15 4 15
9 0 5 3 16 6 25 6 14 -29 16 -348 16 -195 0 -358 -3 -361 -7z"/>
<path d="M8150 2741 c0 -5 -3 -16 -6 -25 -4 -11 -1 -16 10 -16 9 0 25 -9 37
-21 25 -25 21 -70 -15 -177 -37 -108 -555 -1380 -592 -1455 -40 -79 -100 -143
-145 -155 -18 -4 -39 -18 -47 -30 l-14 -22 220 0 c191 0 221 2 226 16 10 26 7
34 -14 34 -54 0 -51 95 7 251 l40 104 232 3 233 2 -4 -132 c-5 -175 -18 -205
-104 -233 -1 0 -5 -10 -8 -22 l-7 -23 361 0 c326 0 362 2 356 16 -3 9 -6 19
-6 24 0 4 -13 10 -30 13 -36 8 -65 51 -80 121 -15 70 -42 1487 -30 1563 12 69
35 105 78 118 24 7 32 15 32 32 l0 23 -365 0 c-215 0 -365 -4 -365 -9z m161
-961 l4 -345 -187 -3 c-104 -1 -188 1 -188 5 0 4 80 203 178 442 l177 435 6
-94 c4 -52 8 -250 10 -440z"/>
<path d="M9367 2743 c-15 -15 -5 -33 27 -48 43 -21 56 -51 56 -134 0 -70 -210
-1297 -250 -1460 -33 -133 -82 -211 -134 -211 -13 0 -36 -28 -36 -44 0 -3 99
-6 220 -6 l220 0 0 25 c0 18 -5 25 -18 25 -38 0 -56 37 -61 117 -3 63 14 173
95 634 54 307 101 555 105 551 3 -4 41 -248 83 -542 83 -574 93 -632 131 -697
48 -81 166 -113 419 -113 l133 0 -5 25 c-2 15 -11 25 -22 25 -36 0 -55 38 -58
119 -3 63 16 189 112 731 122 688 137 763 168 847 19 52 75 113 103 113 13 0
35 28 35 44 0 3 -99 6 -220 6 l-220 0 0 -23 c0 -16 9 -26 30 -34 72 -27 68
-102 -30 -667 -44 -254 -83 -472 -87 -486 -3 -15 -38 193 -83 502 -42 290 -85
548 -94 572 -21 54 -81 111 -133 125 -41 12 -475 15 -486 4z"/>
<path d="M16057 2743 c-16 -15 -5 -34 27 -47 46 -19 56 -42 56 -122 0 -68
-224 -1377 -256 -1498 -29 -112 -81 -186 -128 -186 -13 0 -36 -28 -36 -44 0
-3 162 -6 360 -6 353 0 360 0 360 20 0 13 -12 25 -34 34 -45 19 -61 71 -51
171 8 92 230 1357 255 1458 11 44 29 94 41 113 21 34 64 64 92 64 14 0 27 20
27 41 0 10 -703 13 -713 2z"/>
<path d="M16887 2743 c-15 -15 -5 -33 27 -48 43 -21 56 -51 56 -134 0 -70
-210 -1297 -250 -1460 -33 -133 -82 -211 -134 -211 -13 0 -36 -28 -36 -44 0
-3 99 -6 220 -6 l220 0 0 25 c0 18 -5 25 -18 25 -38 0 -56 37 -61 117 -3 63
14 173 95 634 54 307 101 555 105 551 3 -4 41 -248 83 -542 83 -574 93 -632
131 -697 48 -81 166 -113 419 -113 l133 0 -5 25 c-2 15 -11 25 -22 25 -36 0
-55 38 -58 119 -3 63 16 189 112 731 122 688 137 763 168 847 19 52 75 113
103 113 13 0 35 28 35 44 0 3 -99 6 -220 6 l-220 0 0 -23 c0 -16 9 -26 30 -34
72 -27 68 -102 -30 -667 -44 -254 -83 -472 -87 -486 -3 -15 -38 193 -83 502
-42 290 -85 548 -94 572 -21 54 -81 111 -133 125 -41 12 -475 15 -486 4z"/>
<path d="M18325 2738 c-2 -7 -23 -123 -45 -258 -23 -135 -44 -255 -47 -267 -5
-21 -2 -23 35 -23 l41 0 16 57 c39 135 112 235 203 280 48 23 72 28 159 31 95
4 101 3 97 -14 -2 -11 -61 -341 -130 -734 -68 -393 -131 -736 -138 -761 -27
-91 -77 -159 -117 -159 -16 0 -39 -27 -39 -44 0 -3 161 -6 359 -6 l358 0 -5
25 c-2 15 -11 25 -22 25 -37 0 -55 38 -58 124 -3 69 17 193 127 809 72 401
131 730 131 733 0 9 169 3 201 -8 98 -33 141 -109 147 -260 l4 -98 37 0 37 0
50 275 c28 152 48 278 45 280 -2 3 -328 5 -723 5 -566 0 -720 -3 -723 -12z"/>
<path d="M19900 2727 c0 -17 9 -26 35 -36 42 -15 51 -39 49 -131 -2 -64 -230
-1377 -260 -1494 -27 -106 -64 -160 -119 -175 -16 -4 -32 -17 -36 -29 l-8 -22
642 0 642 0 43 258 c24 142 45 268 49 280 5 20 2 22 -36 22 -31 0 -43 -5 -47
-17 -42 -130 -147 -253 -262 -311 l-76 -37 -163 -4 c-144 -3 -163 -1 -163 13
0 9 23 147 50 307 28 160 50 293 50 295 0 2 28 4 63 4 111 0 167 -51 167 -152
l0 -48 38 0 39 0 47 278 c26 152 50 285 53 295 4 14 -2 17 -36 17 -36 0 -41
-3 -47 -27 -11 -50 -54 -113 -95 -140 -31 -20 -56 -27 -114 -31 -59 -4 -75 -2
-75 9 0 8 27 167 60 354 33 187 60 344 60 348 0 5 93 7 208 5 186 -3 210 -5
236 -23 36 -24 56 -71 56 -130 l0 -45 40 0 c22 0 40 3 40 8 0 4 14 84 30 177
16 94 30 178 30 188 0 16 -35 17 -595 17 l-595 0 0 -23z"/>
<path d="M21297 2744 c-16 -16 -5 -34 27 -48 46 -19 56 -42 56 -123 0 -68
-236 -1428 -264 -1523 -29 -98 -76 -160 -120 -160 -13 0 -36 -28 -36 -44 0 -3
162 -6 360 -6 353 0 360 0 360 20 0 13 -12 25 -34 34 -70 29 -71 101 -2 479
30 165 46 232 56 232 8 0 45 -95 101 -264 93 -276 127 -349 192 -414 74 -74
104 -82 345 -85 116 -2 212 -1 212 3 0 20 -23 43 -49 48 -42 9 -99 70 -131
141 -29 66 -214 616 -209 620 2 1 39 15 81 30 266 95 413 290 425 566 6 120
-12 218 -52 286 -32 55 -104 117 -171 149 -117 55 -140 58 -659 62 -264 3
-483 1 -488 -3z m778 -213 c104 -46 146 -120 146 -254 -1 -278 -181 -477 -433
-477 -37 0 -68 2 -68 4 0 3 29 171 65 374 36 204 65 373 65 377 0 4 39 5 88 3
61 -3 102 -11 137 -27z"/>
<path d="M23007 2743 c-15 -15 -5 -33 27 -48 43 -21 56 -51 56 -134 0 -70
-210 -1297 -250 -1460 -33 -133 -82 -211 -134 -211 -13 0 -36 -28 -36 -44 0
-3 99 -6 220 -6 l220 0 0 25 c0 18 -5 25 -18 25 -38 0 -56 37 -61 117 -3 63
14 173 95 634 54 307 101 555 105 551 3 -4 41 -247 83 -539 42 -293 84 -559
92 -590 40 -156 111 -205 311 -219 76 -6 97 -4 104 7 15 24 10 37 -16 43 -22
6 -25 12 -25 52 0 26 11 73 25 107 26 63 524 1057 525 1046 2 -33 -184 -1040
-201 -1085 -24 -64 -75 -124 -106 -124 -11 0 -25 -11 -31 -25 l-12 -25 360 0
c353 0 360 0 360 20 0 13 -12 25 -35 34 -74 31 -70 88 69 881 125 709 138 777
168 842 20 42 70 83 101 83 14 0 27 20 27 42 0 6 -79 8 -217 6 -215 -3 -219
-3 -275 -31 -113 -56 -129 -81 -442 -705 -227 -453 -285 -562 -290 -542 -3 14
-40 259 -81 545 -42 286 -83 545 -91 575 -19 67 -80 132 -139 149 -43 12 -477
16 -488 4z"/>
<path d="M25590 2741 c0 -5 -3 -16 -6 -25 -4 -11 -1 -16 10 -16 9 0 25 -9 37
-21 25 -25 21 -70 -15 -177 -37 -108 -555 -1380 -592 -1455 -40 -79 -100 -143
-145 -155 -18 -4 -39 -18 -47 -30 l-14 -22 220 0 c191 0 221 2 226 16 10 26 7
34 -14 34 -54 0 -51 95 7 251 l40 104 232 3 233 2 -4 -132 c-5 -175 -18 -205
-104 -233 -1 0 -5 -10 -8 -22 l-7 -23 361 0 c326 0 362 2 356 16 -3 9 -6 19
-6 24 0 4 -13 10 -30 13 -36 8 -65 51 -80 121 -15 70 -42 1487 -30 1563 12 69
35 105 78 118 24 7 32 15 32 32 l0 23 -365 0 c-215 0 -365 -4 -365 -9z m161
-961 l4 -345 -187 -3 c-104 -1 -188 1 -188 5 0 4 80 203 178 442 l177 435 6
-94 c4 -52 8 -250 10 -440z"/>
<path d="M26807 2743 c-15 -15 -5 -33 27 -48 43 -21 56 -51 56 -134 0 -70
-210 -1297 -250 -1460 -33 -133 -82 -211 -134 -211 -13 0 -36 -28 -36 -44 0
-3 99 -6 220 -6 l220 0 0 25 c0 18 -5 25 -18 25 -38 0 -56 37 -61 117 -3 63
14 173 95 634 54 307 101 555 105 551 3 -4 41 -248 83 -542 83 -574 93 -632
131 -697 48 -81 166 -113 419 -113 l133 0 -5 25 c-2 15 -11 25 -22 25 -36 0
-55 38 -58 119 -3 63 16 189 112 731 122 688 137 763 168 847 19 52 75 113
103 113 13 0 35 28 35 44 0 3 -99 6 -220 6 l-220 0 0 -23 c0 -16 9 -26 30 -34
72 -27 68 -102 -30 -667 -44 -254 -83 -472 -87 -486 -3 -15 -38 193 -83 502
-42 290 -85 548 -94 572 -21 54 -81 111 -133 125 -41 12 -475 15 -486 4z"/>
</g>
</svg>
